<?xml version="1.0" encoding="UTF-8"?>
<!DOCTYPE svg PUBLIC "-//W3C//DTD SVG 1.1//EN" "http://www.w3.org/Graphics/SVG/1.1/DTD/svg11.dtd">
<svg xmlns="http://www.w3.org/2000/svg" version="1.1" width="1340px" height="340px" style="shape-rendering:geometricPrecision; text-rendering:geometricPrecision; image-rendering:optimizeQuality; fill-rule:evenodd; clip-rule:evenodd" xmlns:xlink="http://www.w3.org/1999/xlink">
<g><path style="opacity:1" fill="#fefefe" d="M -0.5,-0.5 C 446.167,-0.5 892.833,-0.5 1339.5,-0.5C 1339.5,112.833 1339.5,226.167 1339.5,339.5C 892.833,339.5 446.167,339.5 -0.5,339.5C -0.5,226.167 -0.5,112.833 -0.5,-0.5 Z"/></g>
<g><path style="opacity:1" fill="#202124" d="M 759.5,63.5 C 760.142,100.646 760.809,137.646 761.5,174.5C 771.6,165.903 781.267,156.736 790.5,147C 797.484,140.675 805.484,136.175 814.5,133.5C 818.074,133.969 821.408,135.136 824.5,137C 831.08,143.011 836.58,149.844 841,157.5C 843.911,165.595 842.078,172.428 835.5,178C 824.032,186.969 813.032,196.469 802.5,206.5C 818.162,219.992 833.995,233.325 850,246.5C 852.046,249.135 853.213,252.135 853.5,255.5C 849.956,267.412 843.29,277.245 833.5,285C 828.987,287.754 824.32,288.087 819.5,286C 813.323,283.081 807.656,279.414 802.5,275C 789,262.167 775.5,249.333 762,236.5C 761.667,247.833 761.333,259.167 761,270.5C 759.067,279.9 753.234,284.734 743.5,285C 735.785,285.762 728.119,285.429 720.5,284C 714.332,281.476 710.665,276.976 709.5,270.5C 709.18,201.811 709.513,133.144 710.5,64.5C 711.921,59.9102 714.921,56.7435 719.5,55C 730.578,52.786 741.578,53.1194 752.5,56C 755.739,57.7364 758.073,60.2364 759.5,63.5 Z"/></g>
<g><path style="opacity:1" fill="#b06527" d="M 710.5,64.5 C 709.513,133.144 709.18,201.811 709.5,270.5C 708.335,203.001 708.168,135.335 709,67.5C 709.232,66.2625 709.732,65.2625 710.5,64.5 Z"/></g>
<g><path style="opacity:1" fill="#24448d" d="M 759.5,63.5 C 760.268,64.2625 760.768,65.2625 761,66.5C 761.5,102.498 761.667,138.498 761.5,174.5C 760.809,137.646 760.142,100.646 759.5,63.5 Z"/></g>
<g><path style="opacity:1" fill="#212125" d="M 30.5,163.5 C 31.9238,161.485 32.5905,159.152 32.5,156.5C 36.4251,144.736 44.0917,136.236 55.5,131C 86.5251,120.542 116.525,122.875 145.5,138C 149.305,142.091 150.472,146.924 149,152.5C 146.14,160.38 141.64,167.213 135.5,173C 132.298,174.483 128.964,174.817 125.5,174C 111.925,166.75 97.592,164.417 82.5,167C 77.666,168.834 76.4993,172.001 79,176.5C 80.5429,178.378 82.3762,179.878 84.5,181C 92.9731,183.609 101.64,185.276 110.5,186C 147.902,192.953 162.735,215.12 155,252.5C 151.532,264.968 144.032,274.135 132.5,280C 97.4263,293.791 63.7596,291.124 31.5,272C 25.8793,267.115 24.046,260.948 26,253.5C 29.6815,245.169 34.8482,238.002 41.5,232C 45.1667,231.333 48.8333,231.333 52.5,232C 62.0179,236.591 71.6845,240.924 81.5,245C 89.6908,246.102 97.6908,245.435 105.5,243C 109.366,240.245 109.366,237.579 105.5,235C 103.913,234.138 102.246,233.471 100.5,233C 81.7547,230.974 64.4214,224.974 48.5,215C 37.9919,205.484 32.1586,193.65 31,179.5C 30.5006,174.177 30.334,168.844 30.5,163.5 Z"/></g>
<g><path style="opacity:1" fill="#212125" d="M 359.5,238.5 C 358.538,234.605 357.204,230.939 355.5,227.5C 354.317,219.383 353.65,211.216 353.5,203C 353.313,197.29 353.979,191.79 355.5,186.5C 357.277,183.495 358.277,180.162 358.5,176.5C 368.449,150.833 386.782,134.333 413.5,127C 428.757,124.051 444.091,123.717 459.5,126C 494.984,136.15 511.818,159.65 510,196.5C 508.169,210.664 500.336,219.497 486.5,223C 461.169,223.5 435.836,223.667 410.5,223.5C 411.074,230.799 414.74,235.966 421.5,239C 433.793,243.877 446.46,244.877 459.5,242C 466.654,239.666 473.821,237.499 481,235.5C 487.394,235.531 492.394,238.197 496,243.5C 508.282,262.376 504.116,275.876 483.5,284C 457.116,291.14 430.783,291.14 404.5,284C 382.612,275.613 367.612,260.446 359.5,238.5 Z"/></g>
<g><path style="opacity:1" fill="#202124" d="M 1008.5,164.5 C 1008.72,168.162 1009.72,171.495 1011.5,174.5C 1012.66,182.656 1012.82,190.99 1012,199.5C 1008.82,212.009 1000.99,219.842 988.5,223C 963.169,223.5 937.836,223.667 912.5,223.5C 912.97,229.27 915.637,233.77 920.5,237C 931.067,243.105 942.4,245.105 954.5,243C 964.514,241.104 974.347,238.604 984,235.5C 990.514,236.022 995.514,239.022 999,244.5C 1010.46,266.402 1003.96,280.236 979.5,286C 956.05,290.932 932.717,290.599 909.5,285C 883.306,275.134 866.472,256.634 859,229.5C 848.622,182.089 865.455,148.589 909.5,129C 931.286,122.695 952.953,123.028 974.5,130C 990.742,136.741 1002.08,148.241 1008.5,164.5 Z"/></g>
<g><path style="opacity:1" fill="#212125" d="M 1164.5,163.5 C 1165.92,161.485 1166.59,159.152 1166.5,156.5C 1170.43,144.736 1178.09,136.236 1189.5,131C 1220.53,120.542 1250.53,122.875 1279.5,138C 1283.3,142.091 1284.47,146.924 1283,152.5C 1280.14,160.38 1275.64,167.213 1269.5,173C 1266.3,174.483 1262.96,174.817 1259.5,174C 1245.93,166.75 1231.59,164.417 1216.5,167C 1211.67,168.834 1210.5,172.001 1213,176.5C 1214.54,178.378 1216.38,179.878 1218.5,181C 1226.97,183.609 1235.64,185.276 1244.5,186C 1281.9,192.953 1296.74,215.12 1289,252.5C 1285.53,264.968 1278.03,274.135 1266.5,280C 1231.43,293.791 1197.76,291.124 1165.5,272C 1159.88,267.115 1158.05,260.948 1160,253.5C 1163.68,245.169 1168.85,238.002 1175.5,232C 1179.17,231.333 1182.83,231.333 1186.5,232C 1196.02,236.591 1205.68,240.924 1215.5,245C 1223.69,246.102 1231.69,245.435 1239.5,243C 1243.37,240.245 1243.37,237.579 1239.5,235C 1237.91,234.138 1236.25,233.471 1234.5,233C 1215.75,230.974 1198.42,224.974 1182.5,215C 1171.99,205.484 1166.16,193.65 1165,179.5C 1164.5,174.177 1164.33,168.844 1164.5,163.5 Z"/></g>
<g><path style="opacity:1" fill="#212125" d="M 1115.5,125.5 C 1153.04,125.249 1162.87,141.582 1145,174.5C 1139.57,180.866 1132.73,183.032 1124.5,181C 1112.1,174.045 1100.6,175.212 1090,184.5C 1087.78,186.723 1086.44,189.389 1086,192.5C 1085.67,218.5 1085.33,244.5 1085,270.5C 1083.82,278.342 1079.32,282.842 1071.5,284C 1062.49,285.923 1053.49,285.923 1044.5,284C 1037.79,281.957 1033.96,277.457 1033,270.5C 1032.33,227.167 1032.33,183.833 1033,140.5C 1035.54,133.138 1040.71,128.972 1048.5,128C 1055.17,127.333 1061.83,127.333 1068.5,128C 1078.26,128.759 1083.76,133.926 1085,143.5C 1093.49,134.51 1103.66,128.51 1115.5,125.5 Z"/></g>
<g><path style="opacity:1" fill="#212124" d="M 226.5,137.5 C 226.624,141.002 227.291,143.668 228.5,145.5C 246.295,126.225 267.295,122.058 291.5,133C 314.035,144.886 327.702,163.386 332.5,188.5C 333.416,215.486 333.75,242.486 333.5,269.5C 332.438,277.73 327.771,282.563 319.5,284C 308.783,286.663 298.45,285.663 288.5,281C 283.858,276.883 281.525,271.716 281.5,265.5C 281.667,243.164 281.5,220.831 281,198.5C 280.768,197.263 280.268,196.263 279.5,195.5C 276.391,186.585 270.057,181.418 260.5,180C 245.254,178.101 234.921,184.268 229.5,198.5C 228.667,223.16 228.167,247.827 228,272.5C 226.314,277.394 223.147,280.894 218.5,283C 208.906,285.757 199.24,286.09 189.5,284C 182.667,282.5 178.5,278.333 177,271.5C 176.333,227.5 176.333,183.5 177,139.5C 178.779,135.388 181.612,132.222 185.5,130C 196.842,126.701 208.175,126.701 219.5,130C 223.418,131.083 225.752,133.583 226.5,137.5 Z"/></g>
<g><path style="opacity:1" fill="#212124" d="M 682.5,137.5 C 682.565,140.428 683.232,143.095 684.5,145.5C 684.667,187.835 684.5,230.168 684,272.5C 681.974,279.19 677.474,283.023 670.5,284C 661.447,284.846 652.447,284.513 643.5,283C 637.394,280.557 633.894,276.057 633,269.5C 623.08,280.703 610.58,285.703 595.5,284.5C 583.814,284.746 573.148,281.579 563.5,275C 548.538,264.217 537.538,250.384 530.5,233.5C 529.871,230.603 528.871,227.936 527.5,225.5C 520.883,187.148 533.883,157.315 566.5,136C 584.504,125.563 602.838,124.896 621.5,134C 625.955,136.291 629.622,139.458 632.5,143.5C 633.923,134.91 638.923,129.743 647.5,128C 656.979,126.94 666.312,127.607 675.5,130C 679.079,131.41 681.412,133.91 682.5,137.5 Z"/></g>
<g><path style="opacity:1" fill="#3365a5" d="M 226.5,137.5 C 228.04,139.838 228.706,142.505 228.5,145.5C 227.291,143.668 226.624,141.002 226.5,137.5 Z"/></g>
<g><path style="opacity:1" fill="#2c4482" d="M 682.5,137.5 C 684.04,139.838 684.706,142.505 684.5,145.5C 683.232,143.095 682.565,140.428 682.5,137.5 Z"/></g>
<g><path style="opacity:1" fill="#d49356" d="M 32.5,156.5 C 32.5905,159.152 31.9238,161.485 30.5,163.5C 30.4095,160.848 31.0762,158.515 32.5,156.5 Z"/></g>
<g><path style="opacity:1" fill="#d49356" d="M 1166.5,156.5 C 1166.59,159.152 1165.92,161.485 1164.5,163.5C 1164.41,160.848 1165.08,158.515 1166.5,156.5 Z"/></g>
<g><path style="opacity:1" fill="#37558b" d="M 1008.5,164.5 C 1010.28,167.505 1011.28,170.838 1011.5,174.5C 1009.72,171.495 1008.72,168.162 1008.5,164.5 Z"/></g>
<g><path style="opacity:1" fill="#fcfcfb" d="M 432.5,171.5 C 439.526,170.805 446.193,171.972 452.5,175C 458.112,179.176 459.945,184.676 458,191.5C 456.363,193.81 454.196,195.31 451.5,196C 437.504,196.5 423.504,196.667 409.5,196.5C 409.408,192.941 410.241,189.608 412,186.5C 417.606,179.634 424.439,174.634 432.5,171.5 Z"/></g>
<g><path style="opacity:1" fill="#fcfcfb" d="M 935.5,171.5 C 943.087,170.542 950.087,172.042 956.5,176C 958.049,177.214 959.215,178.714 960,180.5C 960.667,184.5 960.667,188.5 960,192.5C 958.2,194.317 956.034,195.484 953.5,196C 939.837,196.5 926.171,196.667 912.5,196.5C 912.117,191.48 913.617,187.147 917,183.5C 922.362,178.081 928.528,174.081 935.5,171.5 Z"/></g>
<g><path style="opacity:1" fill="#8c5535" d="M 358.5,176.5 C 358.277,180.162 357.277,183.495 355.5,186.5C 355.723,182.838 356.723,179.505 358.5,176.5 Z"/></g>
<g><path style="opacity:1" fill="#fcfcfc" d="M 628.5,196.5 C 629.275,201.797 629.608,207.13 629.5,212.5C 621.806,231.838 608.473,237.005 589.5,228C 576.632,216.066 575.132,202.899 585,188.5C 598.605,176.393 611.938,176.726 625,189.5C 626.705,191.577 627.872,193.91 628.5,196.5 Z"/></g>
<g><path style="opacity:1" fill="#edbb76" d="M 628.5,196.5 C 630.006,199.356 630.672,202.523 630.5,206C 630.496,208.361 630.163,210.527 629.5,212.5C 629.608,207.13 629.275,201.797 628.5,196.5 Z"/></g>
<g><path style="opacity:1" fill="#fcd185" d="M 279.5,195.5 C 280.268,196.263 280.768,197.263 281,198.5C 281.5,220.831 281.667,243.164 281.5,265.5C 280.793,242.314 280.127,218.98 279.5,195.5 Z"/></g>
<g><path style="opacity:1" fill="#2b68b4" d="M 332.5,188.5 C 333.314,190.631 333.814,192.964 334,195.5C 334.83,220.337 334.663,245.003 333.5,269.5C 333.75,242.486 333.416,215.486 332.5,188.5 Z"/></g>
<g><path style="opacity:1" fill="#ecbc86" d="M 527.5,225.5 C 528.871,227.936 529.871,230.603 530.5,233.5C 528.345,231.383 527.345,228.716 527.5,225.5 Z"/></g>
<g><path style="opacity:1" fill="#e6b57e" d="M 355.5,227.5 C 357.204,230.939 358.538,234.605 359.5,238.5C 357.01,235.374 355.677,231.708 355.5,227.5 Z"/></g>
</svg>
